<svg xmlns="http://www.w3.org/2000/svg" viewBox="0 0 24 24" id="eye">
  <g fill="#000000" class="color000000 svgShape">
    <path fill="#ffffff" d="M22.10254,10.67139,18.3457,7.45117a9.70037,9.70037,0,0,0-12.6914,0L1.89746,10.6709a1.74994,1.74994,0,0,0,0,2.65771L5.6543,16.54883a9.70114,9.70114,0,0,0,12.6914,0l3.75684-3.21973a1.74994,1.74994,0,0,0,0-2.65771Z" class="color8dd1ff svgShape"></path>
    <path fill="#959595" d="M15.44451,11.42136a.61727.61727,0,0,0-.73185-.47007,1.20228,1.20228,0,0,1-.24207.0193,1.44293,1.44293,0,0,1-1.44118-1.44118,1.16369,1.16369,0,0,1,.0193-.24046.61782.61782,0,0,0-.47047-.73346A2.65619,2.65619,0,0,0,12,8.5,3.5,3.5,0,1,0,15.5,12,2.65315,2.65315,0,0,0,15.44451,11.42136Z" class="color3e96ed svgShape"></path>
    <path fill="#565656" d="M12,18.91211a9.7301,9.7301,0,0,1-6.3457-2.36328h0l-3.75684-3.2207a1.74851,1.74851,0,0,1,.001-2.65723L5.6543,7.45117a9.70265,9.70265,0,0,1,12.6914,0l3.75684,3.22071a1.7485,1.7485,0,0,1-.001,2.65722L18.3457,16.54883A9.7301,9.7301,0,0,1,12,18.91211ZM6.63086,15.41016a8.20844,8.20844,0,0,0,10.73828,0L21.126,12.18945a.248.248,0,0,0,.001-.37793L17.36914,8.58984a8.20957,8.20957,0,0,0-10.73828,0L2.874,11.81055a.248.248,0,0,0-.001.37793Z" class="color004fac svgShape"></path>
    <path fill="#565656" d="M12,16.25a4.25,4.25,0,0,1,0-8.5,3.22558,3.22558,0,0,1,.70215.06738.75146.75146,0,0,1,.57129.8916A1.38725,1.38725,0,0,0,13.25,9,1.75213,1.75213,0,0,0,15,10.75a1.38725,1.38725,0,0,0,.291-.02344.75461.75461,0,0,1,.8916.57032A3.22329,3.22329,0,0,1,16.25,12,4.25444,4.25444,0,0,1,12,16.25Zm-.23926-6.98926a2.74984,2.74984,0,1,0,2.97852,2.97852A3.25333,3.25333,0,0,1,11.76074,9.26074Z" class="color004fac svgShape"></path>
  </g>
</svg>
